<svg xmlns="http://www.w3.org/2000/svg" id="SvgjsSvg321791" width="4096" height="1625.8465713901141" version="1.1" xmlns:xlink="http://www.w3.org/1999/xlink" xmlns:svgjs="http://svgjs.com/svgjs"><defs id="SvgjsDefs321792"></defs><g id="SvgjsG321793" transform="translate(328, 328) scale(34.4)" opacity="1"><defs id="SvgjsDefs84092"></defs><g id="SvgjsG84093" transform="scale(0.21645021645021645)" opacity="1"><g id="SvgjsG84094" class="e1v1gSyOx" transform="translate(-12.977547589936005, -12.924849795476902) scale(6.507897517749856)" light-content="false" non-strokable="false" fill="#1c64f2"><path d="M12 14a1 1 0 0 1-.49-.13l-9-5a1 1 0 0 1 0-1.75l9-5a1 1 0 0 1 1 0l9 5a1 1 0 0 1 0 1.75l-9 5A1 1 0 0 1 12 14zm0 8a1 1 0 0 1-.49-.13l-9-5a1 1 0 0 1 1-1.75L12 19.86l8.51-4.73a1 1 0 1 1 1 1.75l-9 5A1 1 0 0 1 12 22z"></path><path d="M12 18a1 1 0 0 1-.49-.13l-9-5a1 1 0 0 1 1-1.75L12 15.86l8.51-4.73a1 1 0 1 1 1 1.75l-9 5A1 1 0 0 1 12 18z"></path></g><g id="SvgjsG84095" class="text" transform="translate(321.09609899405604, 91.80962727211087) scale(1)" light-content="false" fill="#475569"><path d="M-83.33 -9.25L-83.33 -36.54L-110.33 -36.54L-110.33 -27.15L-95.65 -27.15L-95.65 -13.21C-98.33 -10.34 -102.83 -8.9 -109.16 -8.9C-114.93 -8.9 -119.44 -11.03 -122.68 -15.29C-125.93 -19.54 -127.55 -25.52 -127.55 -33.21L-127.55 -38.69C-127.45 -46.42 -125.96 -52.28 -123.07 -56.28C-120.19 -60.27 -115.97 -62.27 -110.43 -62.27C-101.85 -62.27 -96.88 -57.98 -95.51 -49.41L-83.38 -49.41C-84.32 -56.78 -87.13 -62.42 -91.79 -66.33C-96.45 -70.24 -102.75 -72.2 -110.67 -72.2C-119.9 -72.2 -127.09 -69.18 -132.24 -63.13C-137.4 -57.08 -139.97 -48.67 -139.97 -37.91L-139.97 -32.33C-139.87 -25.62 -138.58 -19.74 -136.08 -14.7C-133.59 -9.66 -130.04 -5.79 -125.44 -3.08C-120.85 -0.38 -115.56 0.98 -109.6 0.98C-103.79 0.98 -98.61 0.11 -94.04 -1.61C-89.48 -3.34 -85.9 -5.89 -83.33 -9.25Z M-43.17 -42.07L-43.12 -53.22C-44.23 -53.68 -45.63 -53.91 -47.33 -53.91C-52.41 -53.91 -56.39 -51.61 -59.26 -47.01L-59.56 -52.93L-70.9 -52.93L-70.9 0L-59.02 0L-59.02 -36.2C-57.13 -40.37 -53.46 -42.46 -48.01 -42.46C-46.35 -42.46 -44.73 -42.33 -43.17 -42.07Z M-23.01 0L-23.01 -52.93L-34.9 -52.93L-34.9 0ZM-35.64 -66.67C-35.64 -64.88 -35.06 -63.39 -33.9 -62.2C-32.74 -61.01 -31.09 -60.41 -28.93 -60.41C-26.78 -60.41 -25.12 -61.01 -23.94 -62.2C-22.77 -63.39 -22.18 -64.88 -22.18 -66.67C-22.18 -68.5 -22.77 -70.01 -23.94 -71.22C-25.12 -72.43 -26.78 -73.03 -28.93 -73.03C-31.09 -73.03 -32.74 -72.43 -33.9 -71.22C-35.06 -70.01 -35.64 -68.5 -35.64 -66.67Z M-12.3 -26.85C-12.3 -18.28 -10.39 -11.5 -6.55 -6.51C-2.72 -1.52 2.29 0.98 8.49 0.98C14.42 0.98 19.17 -1.17 22.72 -5.48L23.31 0L34.07 0L34.07 -75.13L22.18 -75.13L22.18 -48.04C18.73 -51.95 14.19 -53.91 8.58 -53.91C2.23 -53.91 -2.85 -51.44 -6.63 -46.49C-10.41 -41.55 -12.3 -35.01 -12.3 -26.85ZM-0.42 -25.83C-0.42 -31.96 0.63 -36.55 2.71 -39.6C4.8 -42.65 7.77 -44.17 11.62 -44.17C16.48 -44.17 20 -42.05 22.18 -37.81L22.18 -15.21C19.93 -10.88 16.38 -8.71 11.52 -8.71C7.7 -8.71 4.76 -10.22 2.69 -13.23C0.62 -16.25 -0.42 -20.45 -0.42 -25.83Z M53.88 -12.52C51.7 -12.52 50 -11.89 48.79 -10.64C47.59 -9.38 46.98 -7.81 46.98 -5.92C46.98 -4.03 47.6 -2.48 48.84 -1.27C50.08 -0.07 51.76 0.54 53.88 0.54C56.1 0.54 57.81 -0.07 59.02 -1.3C60.22 -2.52 60.83 -4.06 60.83 -5.92C60.83 -7.81 60.22 -9.38 59.02 -10.64C57.81 -11.89 56.1 -12.52 53.88 -12.52Z M86.85 -52.93L74.96 -52.93L74.96 5.14C74.87 9.44 72.84 11.59 68.9 11.59C67.33 11.59 65.93 11.45 64.69 11.15L64.69 20.54C66.71 21.1 68.82 21.38 71 21.38C76.19 21.38 80.12 19.95 82.81 17.1C85.5 14.24 86.85 10.11 86.85 4.7ZM73.94 -66.67C73.94 -64.88 74.52 -63.39 75.67 -62.2C76.83 -61.01 78.49 -60.41 80.64 -60.41C82.79 -60.41 84.45 -61.01 85.63 -62.2C86.8 -63.39 87.39 -64.88 87.39 -66.67C87.39 -68.5 86.8 -70.01 85.63 -71.22C84.45 -72.43 82.79 -73.03 80.64 -73.03C78.49 -73.03 76.83 -72.43 75.67 -71.22C74.52 -70.01 73.94 -68.5 73.94 -66.67Z M129.21 -14.38C129.21 -12.46 128.4 -10.9 126.77 -9.71C125.13 -8.52 122.75 -7.92 119.62 -7.92C116.4 -7.92 113.8 -8.68 111.85 -10.2C109.89 -11.72 108.83 -13.88 108.67 -16.68L97.12 -16.68C97.12 -13.52 98.07 -10.57 99.96 -7.83C101.85 -5.09 104.49 -2.93 107.88 -1.37C111.28 0.2 115.14 0.98 119.48 0.98C125.87 0.98 131.04 -0.5 134.98 -3.45C138.93 -6.4 140.9 -10.26 140.9 -15.02C140.9 -17.85 140.26 -20.27 138.97 -22.26C137.68 -24.25 135.71 -25.95 133.05 -27.37C130.39 -28.79 126.73 -30.01 122.07 -31.04C117.41 -32.06 114.31 -33.08 112.78 -34.09C111.24 -35.11 110.48 -36.52 110.48 -38.35C110.48 -40.37 111.3 -41.99 112.95 -43.19C114.59 -44.4 116.72 -45 119.33 -45C122.13 -45 124.38 -44.24 126.08 -42.73C127.78 -41.21 128.62 -39.31 128.62 -37.03L140.51 -37.03C140.51 -42.02 138.56 -46.08 134.67 -49.21C130.77 -52.34 125.66 -53.91 119.33 -53.91C113.4 -53.91 108.5 -52.37 104.66 -49.31C100.81 -46.24 98.88 -42.43 98.88 -37.86C98.88 -32.41 101.85 -28.26 107.79 -25.39C110.49 -24.08 113.87 -23.01 117.91 -22.16C121.96 -21.31 124.85 -20.33 126.59 -19.22C128.34 -18.12 129.21 -16.5 129.21 -14.38Z"></path></g></g></g></svg>